<svg xmlns="http://www.w3.org/2000/svg" viewBox="0 0 244 83">
	<g fill="#fff">
		<path d="M9.8 1.5L0 81.5 10.8 81.5 12.3 66.4 21.2 66.4 22.8 81.5 34.5 81.5 24.1 1.5 9.8 1.5zM16.8 25L20 54.5 13.7 54.5 16.8 25zM59.4 45.1L59.4 70.3 63.1 70.3C67 70.3 67.8 68.5 67.8 64.9L67.8 50.2C67.8 46.9 66.9 45 63.1 45L59.4 45 59.4 45.1zM59.4 12.4L59.4 33.2 63.1 33.2C66.4 33.2 67.3 30.9 67.3 27.6L67.3 17.4C67.3 14.1 66.4 12.3 63.1 12.3L59.4 12.3 59.4 12.4zM47.3 1.5L66.4 1.5C76.4 1.5 79.2 6.8 79.2 14.5L79.2 26.8C79.2 33.6 76.3 36.7 73.2 37.9 76.3 39.1 80.2 41.6 80.2 49.6L80.2 66.9C80.2 75.4 76.4 81.5 67.3 81.5L47.3 81.5 47.3 1.5z" />
		<polygon points="124.9 1.5 124.9 13.1 114.7 13.1 114.7 81.5 102.7 81.5 102.7 13.1 92.5 13.1 92.5 1.5" />
		<polygon points="138.1 81.5 150.2 81.5 150.2 1.5 138.1 1.5" />
		<path d="M184.7,18.5 C184.7,14.4 183.3,12.4 180.5,12.4 C177.4,12.4 176.2,14.3 176.2,18.5 L176.2,64.5 C176.2,67.9 177.2,70.6 180.6,70.6 C183.9,70.6 184.7,67.9 184.7,64.5 L184.7,18.5 Z M197.1,63.7 C197.1,74.9 193.3,82.5 181.6,82.5 L179.6,82.5 C168,82.5 163.9,74.9 163.9,63.7 L163.9,19.1 C163.9,7.9 168,0.7 179.5,0.7 L181.5,0.7 C193.3,0.7 197.1,8 197.1,19 L197.1,63.7 Z" />
		<polygon points="221.8 1.5 232.3 44.4 232.3 1.5 243.3 1.5 243.3 81.5 233.5 81.5 221.8 35.5 221.8 81.5 210.9 81.5 210.9 1.5" />
	</g>
</svg>
