<svg viewBox="0 0 310 40" fill="none" xmlns="http://www.w3.org/2000/svg">
<path d="M179.198 25.0005C178.649 25.4752 177.833 25.7126 176.75 25.7126C176.248 25.7126 175.788 25.6651 175.367 25.5702C174.947 25.4752 174.567 25.3565 174.228 25.2141C173.888 25.0559 173.589 24.8897 173.331 24.7156C173.072 24.5257 172.854 24.3437 172.676 24.1697C172.45 24.2488 172.248 24.3833 172.07 24.5732C171.908 24.7473 171.828 24.9688 171.828 25.2378C171.828 25.4752 171.941 25.7205 172.167 25.9737C172.409 26.2111 172.741 26.4326 173.161 26.6383C173.598 26.8441 174.115 27.0102 174.713 27.1368C175.327 27.2634 176.006 27.3267 176.75 27.3267C178.447 27.3267 179.756 26.939 180.677 26.1636C181.599 25.3882 182.059 24.3754 182.059 23.1252C182.059 21.9542 181.688 21.0442 180.944 20.3954C180.217 19.7308 179.215 19.2165 177.938 18.8525L176.459 18.4252C175.553 18.172 174.907 17.8713 174.519 17.5232C174.131 17.175 173.937 16.724 173.937 16.1702C173.937 15.458 174.204 14.9042 174.737 14.5085C175.287 14.1129 176.038 13.9151 176.992 13.9151C177.816 13.9151 178.56 14.0338 179.223 14.2712C179.902 14.5085 180.451 14.7855 180.871 15.102C181.049 15.007 181.195 14.8804 181.308 14.7222C181.421 14.5639 181.478 14.374 181.478 14.1525C181.478 13.9151 181.364 13.6856 181.138 13.4641C180.912 13.2425 180.589 13.0447 180.168 12.8707C179.764 12.6808 179.279 12.5383 178.713 12.4434C178.164 12.3326 177.566 12.2772 176.919 12.2772C176.16 12.2772 175.473 12.3722 174.858 12.5621C174.26 12.7362 173.743 12.9893 173.307 13.3217C172.87 13.654 172.531 14.0654 172.288 14.556C172.062 15.0308 171.949 15.5688 171.949 16.1702C171.949 17.1671 172.24 17.9584 172.822 18.5439C173.42 19.1294 174.236 19.5725 175.271 19.8732L177.38 20.4904C178.301 20.7594 178.972 21.0996 179.392 21.5111C179.829 21.9225 180.047 22.4606 180.047 23.1252C180.047 23.8848 179.764 24.5099 179.198 25.0005Z" fill="currentColor"/>
<path fill-rule="evenodd" clip-rule="evenodd" d="M71.2244 21.8671V26.9707C71.1274 27.0023 70.9981 27.034 70.8365 27.0656C70.6748 27.1131 70.497 27.1368 70.3031 27.1368C69.5918 27.1368 69.2362 26.8441 69.2362 26.2586V13.6303C69.2362 13.3771 69.3009 13.1872 69.4302 13.0606C69.5595 12.9181 69.7616 12.8074 70.0364 12.7282C70.5051 12.5858 71.0709 12.483 71.7336 12.4197C72.4125 12.3564 73.0671 12.3247 73.6975 12.3247C75.7504 12.3247 77.2456 12.752 78.1831 13.6065C79.1368 14.4452 79.6137 15.5846 79.6137 17.0247C79.6137 18.4964 79.1287 19.6754 78.1589 20.5616C77.189 21.4319 75.6938 21.8671 73.6733 21.8671H71.2244ZM73.5521 20.253C74.8452 20.253 75.8474 19.9919 76.5586 19.4697C77.2698 18.9474 77.6255 18.1404 77.6255 17.0484C77.6255 15.9723 77.2779 15.189 76.5829 14.6984C75.904 14.192 74.926 13.9388 73.6491 13.9388C73.2126 13.9388 72.7762 13.9626 72.3398 14.0101C71.9195 14.0417 71.5396 14.0892 71.2002 14.1525V20.253H73.5521Z" fill="currentColor"/>
<path d="M21.3494 12.5383C21.1877 12.57 21.0665 12.6016 20.9857 12.6333V23.4101C20.9857 24.2171 20.7917 24.7947 20.4038 25.1429C20.0158 25.4752 19.4581 25.6414 18.7308 25.6414C18.359 25.6414 18.0034 25.5939 17.6639 25.499C17.3245 25.404 17.0335 25.3011 16.7911 25.1904C16.7102 25.2695 16.6213 25.3882 16.5243 25.5464C16.4274 25.7047 16.3789 25.8946 16.3789 26.1161C16.3789 26.4643 16.589 26.7491 17.0093 26.9707C17.4295 27.1764 18.1004 27.2793 19.0217 27.2793C19.539 27.2793 20.032 27.216 20.5007 27.0894C20.9857 26.9628 21.4059 26.757 21.7615 26.4722C22.1333 26.1715 22.4243 25.7838 22.6344 25.3091C22.8446 24.8185 22.9496 24.2171 22.9496 23.505V13.3454C22.9496 12.7599 22.594 12.4671 21.8828 12.4671C21.705 12.4671 21.5272 12.4909 21.3494 12.5383Z" fill="currentColor"/>
<path d="M42.0985 26.7333C42.2925 26.9232 42.5511 27.0181 42.8744 27.0181H50.512C50.7545 27.0181 50.9404 26.9469 51.0697 26.8045C51.199 26.6463 51.2636 26.4326 51.2636 26.1636C51.2636 25.9895 51.2394 25.8392 51.1909 25.7126C51.1424 25.586 51.0939 25.4831 51.0454 25.404H43.7715V20.4192H49.6391C49.8816 20.4192 50.0675 20.3479 50.1968 20.2055C50.3261 20.0473 50.3908 19.8336 50.3908 19.5646C50.3908 19.4064 50.3665 19.2639 50.318 19.1373C50.2695 18.9949 50.221 18.8841 50.1726 18.805H43.7715V14.2237H50.3908C50.6332 14.2237 50.8191 14.1446 50.9484 13.9863C51.0778 13.8281 51.1424 13.6144 51.1424 13.3454C51.1424 13.1872 51.1182 13.0447 51.0697 12.9181C51.0212 12.7757 50.9727 12.6649 50.9242 12.5858H42.8744C42.5511 12.5858 42.2925 12.6808 42.0985 12.8707C41.9046 13.0606 41.8076 13.3138 41.8076 13.6303V25.9737C41.8076 26.2902 41.9046 26.5434 42.0985 26.7333Z" fill="currentColor"/>
<path fill-rule="evenodd" clip-rule="evenodd" d="M99.5292 26.9707V21.8671H101.978C103.999 21.8671 105.494 21.4319 106.464 20.5616C107.433 19.6754 107.918 18.4964 107.918 17.0247C107.918 15.5846 107.442 14.4452 106.488 13.6065C105.55 12.752 104.055 12.3247 102.002 12.3247C101.372 12.3247 100.717 12.3564 100.038 12.4197C99.3756 12.483 98.8099 12.5858 98.3411 12.7282C98.0663 12.8074 97.8642 12.9181 97.7349 13.0606C97.6056 13.1872 97.541 13.3771 97.541 13.6303V26.2586C97.541 26.8441 97.8966 27.1368 98.6078 27.1368C98.8018 27.1368 98.9796 27.1131 99.1412 27.0656C99.3029 27.034 99.4322 27.0023 99.5292 26.9707ZM104.863 19.4697C104.152 19.9919 103.15 20.253 101.857 20.253H99.5049V14.1525C99.8444 14.0892 100.224 14.0417 100.644 14.0101C101.081 13.9626 101.517 13.9388 101.954 13.9388C103.231 13.9388 104.209 14.192 104.888 14.6984C105.583 15.189 105.93 15.9723 105.93 17.0484C105.93 18.1404 105.575 18.9474 104.863 19.4697Z" fill="currentColor"/>
<path d="M126.913 27.0181C126.589 27.0181 126.331 26.9232 126.137 26.7333C125.943 26.5434 125.846 26.2902 125.846 25.9737V13.6303C125.846 13.3138 125.943 13.0606 126.137 12.8707C126.331 12.6808 126.589 12.5858 126.913 12.5858H134.962C135.011 12.6649 135.059 12.7757 135.108 12.9181C135.156 13.0447 135.181 13.1872 135.181 13.3454C135.181 13.6144 135.116 13.8281 134.987 13.9863C134.857 14.1446 134.671 14.2237 134.429 14.2237H127.81V18.805H134.211C134.259 18.8841 134.308 18.9949 134.356 19.1373C134.405 19.2639 134.429 19.4064 134.429 19.5646C134.429 19.8336 134.364 20.0473 134.235 20.2055C134.106 20.3479 133.92 20.4192 133.677 20.4192H127.81V25.404H135.084C135.132 25.4831 135.181 25.586 135.229 25.7126C135.278 25.8392 135.302 25.9895 135.302 26.1636C135.302 26.4326 135.237 26.6463 135.108 26.8045C134.978 26.9469 134.793 27.0181 134.55 27.0181H126.913Z" fill="currentColor"/>
<path d="M208.47 23.2676C208.357 23.3468 208.204 23.418 208.01 23.4813C207.832 23.5446 207.63 23.5762 207.404 23.5762C207.145 23.5762 206.91 23.5367 206.7 23.4575C206.506 23.3784 206.369 23.2518 206.288 23.0777C205.415 21.3053 204.664 19.6833 204.033 18.2116C203.403 16.7399 202.894 15.5213 202.506 14.556H202.409C202.36 15.7429 202.304 16.8506 202.239 17.8793C202.191 18.892 202.134 19.889 202.069 20.8702C202.005 21.8355 201.94 22.8166 201.875 23.8136C201.811 24.8106 201.746 25.8788 201.681 27.0181C201.584 27.0498 201.455 27.0814 201.293 27.1131C201.148 27.1447 200.986 27.1606 200.809 27.1606C200.453 27.1606 200.202 27.0894 200.057 26.9469C199.911 26.8045 199.839 26.5988 199.839 26.3298C199.839 26.1715 199.847 25.8313 199.863 25.3091C199.895 24.7868 199.936 24.1538 199.984 23.4101C200.033 22.6663 200.081 21.8434 200.13 20.9414C200.194 20.0394 200.259 19.1215 200.324 18.1878C200.404 17.2542 200.477 16.3363 200.542 15.4343C200.623 14.5323 200.695 13.7094 200.76 12.9656C200.889 12.8548 201.075 12.752 201.318 12.657C201.56 12.5621 201.835 12.5146 202.142 12.5146C202.886 12.5146 203.403 12.8074 203.694 13.3929C204.001 14.0101 204.308 14.6668 204.615 15.3631C204.938 16.0436 205.254 16.7399 205.561 17.452C205.884 18.1641 206.191 18.8683 206.482 19.5646C206.789 20.2609 207.08 20.9255 207.355 21.5585H207.452C207.808 20.7198 208.163 19.8969 208.519 19.0899C208.874 18.267 209.222 17.4757 209.561 16.7161C209.901 15.9565 210.224 15.2444 210.531 14.5798C210.838 13.9151 211.113 13.3058 211.356 12.752C211.501 12.6729 211.687 12.6175 211.913 12.5858C212.14 12.5383 212.35 12.5146 212.544 12.5146C213.303 12.5146 213.74 12.7678 213.853 13.2742C213.918 13.559 213.99 14.0338 214.071 14.6984C214.152 15.3473 214.233 16.0989 214.314 16.9535C214.395 17.808 214.467 18.7259 214.532 19.707C214.613 20.6882 214.685 21.6377 214.75 22.5555C214.815 23.4575 214.871 24.2963 214.92 25.0717C214.968 25.8313 215.009 26.4326 215.041 26.8757C214.75 27.0656 214.411 27.1606 214.023 27.1606C213.78 27.1606 213.562 27.1052 213.368 26.9944C213.19 26.8678 213.085 26.6463 213.053 26.3298C212.972 25.1745 212.899 24.0272 212.835 22.8878C212.77 21.7484 212.705 20.6644 212.641 19.6358C212.592 18.6072 212.544 17.6656 212.495 16.8111C212.447 15.9407 212.406 15.2048 212.374 14.6035H212.277C212.099 15.0466 211.889 15.5451 211.647 16.0989C211.42 16.6528 211.146 17.2779 210.822 17.9742C210.515 18.6705 210.168 19.4617 209.78 20.3479C209.392 21.2183 208.955 22.1915 208.47 23.2676Z" fill="currentColor"/>
<path d="M235.172 27.0656C235.334 27.034 235.455 27.0023 235.536 26.9707V13.3454C235.536 12.7599 235.188 12.4671 234.493 12.4671C234.299 12.4671 234.113 12.4909 233.936 12.5383C233.774 12.57 233.653 12.6016 233.572 12.6333V26.2586C233.572 26.8441 233.928 27.1368 234.639 27.1368C234.833 27.1368 235.011 27.1131 235.172 27.0656Z" fill="currentColor"/>
<path d="M259.606 14.2237V26.9707C259.525 27.0023 259.396 27.034 259.218 27.0656C259.056 27.1131 258.886 27.1368 258.709 27.1368C257.997 27.1368 257.642 26.8441 257.642 26.2586V14.2237H253.108C253.059 14.1446 253.011 14.0417 252.962 13.9151C252.914 13.7727 252.889 13.6144 252.889 13.4404C252.889 13.1713 252.954 12.9656 253.083 12.8232C253.213 12.6649 253.399 12.5858 253.641 12.5858H264.14C264.188 12.6649 264.237 12.7757 264.285 12.9181C264.334 13.0447 264.358 13.1872 264.358 13.3454C264.358 13.6144 264.293 13.8281 264.164 13.9863C264.035 14.1446 263.849 14.2237 263.606 14.2237H259.606Z" fill="currentColor"/>
<path d="M292.834 27.0656C292.995 27.034 293.125 27.0023 293.222 26.9707V13.3454C293.222 12.7599 292.866 12.4671 292.155 12.4671C291.961 12.4671 291.775 12.4909 291.597 12.5383C291.436 12.57 291.314 12.6016 291.233 12.6333V18.9H283.669V13.3454C283.669 12.7599 283.313 12.4671 282.602 12.4671C282.408 12.4671 282.222 12.4909 282.044 12.5383C281.882 12.57 281.761 12.6016 281.68 12.6333V26.2586C281.68 26.8441 282.036 27.1368 282.747 27.1368C282.941 27.1368 283.119 27.1131 283.281 27.0656C283.442 27.034 283.572 27.0023 283.669 26.9707V20.5141H291.233V26.2586C291.233 26.8441 291.589 27.1368 292.3 27.1368C292.494 27.1368 292.672 27.1131 292.834 27.0656Z" fill="currentColor"/>
<path fill-rule="evenodd" clip-rule="evenodd" d="M0 0H310V40H0V0ZM1.59794 1.58416H308.402V38.4158H1.59794V1.58416Z" fill="currentColor"/>
</svg>
